<svg width="16" height="17" viewBox="0 0 16 17" fill="none" xmlns="http://www.w3.org/2000/svg">
<path d="M14.6463 12.7203C14.6463 12.9603 14.593 13.207 14.4797 13.447C14.3663 13.687 14.2197 13.9136 14.0263 14.127C13.6997 14.487 13.3397 14.747 12.933 14.9136C12.533 15.0803 12.0997 15.167 11.633 15.167C10.953 15.167 10.2263 15.007 9.45967 14.6803C8.69301 14.3536 7.92634 13.9136 7.16634 13.3603C6.39967 12.8003 5.67301 12.1803 4.97967 11.4936C4.29301 10.8003 3.67301 10.0736 3.11967 9.31362C2.57301 8.55362 2.13301 7.79362 1.81301 7.04029C1.49301 6.28029 1.33301 5.55362 1.33301 4.86028C1.33301 4.40695 1.41301 3.97362 1.57301 3.57362C1.73301 3.16695 1.98634 2.79362 2.33967 2.46028C2.76634 2.04028 3.23301 1.83362 3.72634 1.83362C3.91301 1.83362 4.09967 1.87362 4.26634 1.95362C4.43967 2.03362 4.59301 2.15362 4.71301 2.32695L6.25967 4.50695C6.37967 4.67362 6.46634 4.82695 6.52634 4.97362C6.58634 5.11362 6.61967 5.25362 6.61967 5.38029C6.61967 5.54029 6.57301 5.70028 6.47967 5.85362C6.39301 6.00695 6.26634 6.16695 6.10634 6.32695L5.59967 6.85362C5.52634 6.92695 5.49301 7.01362 5.49301 7.12029C5.49301 7.17362 5.49967 7.22028 5.51301 7.27362C5.53301 7.32695 5.55301 7.36695 5.56634 7.40695C5.68634 7.62695 5.89301 7.91362 6.18634 8.26029C6.48634 8.60695 6.80634 8.96029 7.15301 9.31362C7.51301 9.66695 7.85967 9.99362 8.21301 10.2936C8.55967 10.587 8.84634 10.787 9.07301 10.907C9.10634 10.9203 9.14634 10.9403 9.19301 10.9603C9.24634 10.9803 9.29967 10.987 9.35967 10.987C9.47301 10.987 9.55967 10.947 9.63301 10.8736L10.1397 10.3736C10.3063 10.207 10.4663 10.0803 10.6197 10.0003C10.773 9.90695 10.9263 9.86029 11.093 9.86029C11.2197 9.86029 11.353 9.88695 11.4997 9.94695C11.6463 10.007 11.7997 10.0936 11.9663 10.207L14.173 11.7736C14.3463 11.8936 14.4663 12.0336 14.5397 12.2003C14.6063 12.367 14.6463 12.5336 14.6463 12.7203Z" stroke="#668196" stroke-miterlimit="10"/>
</svg>
