<svg width="25" height="25" viewBox="0 0 16 17" fill="none" xmlns="http://www.w3.org/2000/svg">
<path d="M5.66683 13.1665H5.3335C2.66683 13.1665 1.3335 12.4998 1.3335 9.16646V5.83313C1.3335 3.16646 2.66683 1.83313 5.3335 1.83313H10.6668C13.3335 1.83313 14.6668 3.16646 14.6668 5.83313V9.16646C14.6668 11.8331 13.3335 13.1665 10.6668 13.1665H10.3335C10.1268 13.1665 9.92683 13.2665 9.80016 13.4331L8.80016 14.7665C8.36016 15.3531 7.64016 15.3531 7.20016 14.7665L6.20016 13.4331C6.0935 13.2865 5.84683 13.1665 5.66683 13.1665Z" stroke="#668196" stroke-miterlimit="10" stroke-linecap="round" stroke-linejoin="round"/>
<path d="M10.6646 7.83321H10.6706" stroke="#668196" stroke-width="1.33333" stroke-linecap="round" stroke-linejoin="round"/>
<path d="M7.99715 7.83321H8.00314" stroke="#668196" stroke-width="1.33333" stroke-linecap="round" stroke-linejoin="round"/>
<path d="M5.32967 7.83321H5.33566" stroke="#668196" stroke-width="1.33333" stroke-linecap="round" stroke-linejoin="round"/>
</svg>
