<svg width="16" height="17" viewBox="0 0 16 17" fill="none" xmlns="http://www.w3.org/2000/svg">
<g clip-path="url(#clip0_460_11119)">
<path d="M8 13H12H12.5V15C12.5 15.5489 12.0489 16 11.5 16H8M8 13H4H3.5V15C3.5 15.5489 3.95114 16 4.5 16H8M8 13C8.39782 13 8.77936 13.158 9.06066 13.4393C9.34196 13.7206 9.5 14.1022 9.5 14.5C9.5 14.8978 9.34196 15.2794 9.06066 15.5607C8.77936 15.842 8.39782 16 8 16M8 13C7.60218 13 7.22064 13.158 6.93934 13.4393C6.65804 13.7206 6.5 14.1022 6.5 14.5C6.5 14.8978 6.65804 15.2794 6.93934 15.5607C7.22064 15.842 7.60218 16 8 16M4.5 1H5.5V1.25V1.75V2H4H3.5C3.5 1.45114 3.95114 1 4.5 1ZM10.5 2V1.75V1.25V1H11.5C12.0489 1 12.5 1.45114 12.5 2H12H10.5Z" fill="#668196" stroke="#668196"/>
</g>
<defs>
<clipPath id="clip0_460_11119">
<rect width="16" height="16" fill="white" transform="translate(0 0.5)"/>
</clipPath>
</defs>
</svg>
