<svg width="16" height="16" viewBox="0 0 16 16" fill="none" xmlns="http://www.w3.org/2000/svg">
<path fill-rule="evenodd" clip-rule="evenodd" d="M13.7304 1.94002C12.8326 1.04229 11.3771 1.04229 10.4794 1.94002L4.79578 7.62366C4.38779 8.03165 4.12313 8.56097 4.04153 9.13216L3.87683 10.2851C3.75112 11.165 4.50537 11.9193 5.38532 11.7936L6.53824 11.6289C7.10943 11.5473 7.63874 11.2826 8.04673 10.8746L13.7304 5.19097C14.6281 4.29324 14.6281 2.83774 13.7304 1.94002ZM11.5619 2.76703C11.9377 2.51085 12.4542 2.54945 12.7876 2.88283C13.1209 3.2162 13.1595 3.73273 12.9034 4.10851L11.5619 2.76703ZM10.6071 3.69791L11.9725 5.06325L7.10392 9.9318C6.89993 10.1358 6.63527 10.2681 6.34968 10.3089L5.19676 10.4736L5.36146 9.32072C5.40226 9.03512 5.53459 8.77047 5.73859 8.56647L10.6071 3.69791Z" fill="#FE5251"/>
<path d="M3.99968 1.33336C2.52692 1.33336 1.33301 2.52727 1.33301 4.00003V12C1.33301 13.4728 2.52692 14.6667 3.99967 14.6667H11.9997C13.4724 14.6667 14.6663 13.4728 14.6663 12V8.00003C14.6663 7.63184 14.3679 7.33336 13.9997 7.33336C13.6315 7.33336 13.333 7.63184 13.333 8.00003V12C13.333 12.7364 12.7361 13.3334 11.9997 13.3334H3.99967C3.2633 13.3334 2.66634 12.7364 2.66634 12V4.00003C2.66634 3.26365 3.2633 2.66669 3.99968 2.66669H5.78915C6.15734 2.66669 6.45582 2.36822 6.45582 2.00003C6.45582 1.63184 6.15734 1.33336 5.78915 1.33336H3.99968Z" fill="#FE5251"/>
</svg>
