<svg width="22" height="23" viewBox="0 0 22 23" fill="none" xmlns="http://www.w3.org/2000/svg">
<path d="M15.4451 2.61169H6.55626C4.10293 2.61169 2.11182 4.59392 2.11182 7.03836V12.3539V13.2428C2.11182 15.6873 4.10293 17.6695 6.55626 17.6695H7.88959C8.12959 17.6695 8.44959 17.8295 8.60071 18.025L9.93404 19.7939C10.5207 20.5761 11.4807 20.5761 12.0674 19.7939L13.4007 18.025C13.5696 17.8028 13.8363 17.6695 14.1118 17.6695H15.4451C17.8985 17.6695 19.8896 15.6873 19.8896 13.2428V7.03836C19.8896 4.59392 17.8985 2.61169 15.4451 2.61169ZM7.44515 11.5006C6.94737 11.5006 6.55626 11.1006 6.55626 10.6117C6.55626 10.1228 6.95626 9.72281 7.44515 9.72281C7.93404 9.72281 8.33404 10.1228 8.33404 10.6117C8.33404 11.1006 7.94293 11.5006 7.44515 11.5006ZM11.0007 11.5006C10.5029 11.5006 10.1118 11.1006 10.1118 10.6117C10.1118 10.1228 10.5118 9.72281 11.0007 9.72281C11.4896 9.72281 11.8896 10.1228 11.8896 10.6117C11.8896 11.1006 11.4985 11.5006 11.0007 11.5006ZM14.5563 11.5006C14.0585 11.5006 13.6674 11.1006 13.6674 10.6117C13.6674 10.1228 14.0674 9.72281 14.5563 9.72281C15.0451 9.72281 15.4451 10.1228 15.4451 10.6117C15.4451 11.1006 15.054 11.5006 14.5563 11.5006Z" fill="#FE5251"/>
</svg>
